HIERARCHY
ROOT Hips
{
	OFFSET 2.433734 86.173073 3.643662
	CHANNELS 6 Xposition Yposition Zposition Zrotation Yrotation Xrotation 
	JOINT Spine
	{
		OFFSET -0.000000 8.814246 -2.080107
		CHANNELS 3 Zrotation Yrotation Xrotation
		JOINT Spine1
		{
			OFFSET 0.000000 8.844141 0.000000
			CHANNELS 3 Zrotation Yrotation Xrotation
			JOINT Spine2
			{
				OFFSET 0.000000 11.682268 -0.000000
				CHANNELS 3 Zrotation Yrotation Xrotation
				JOINT Spine3
				{
					OFFSET -0.000000 11.746700 -0.000000
					CHANNELS 3 Zrotation Yrotation Xrotation
					JOINT Neck
					{
						OFFSET -0.000000 17.658264 0.000000
						CHANNELS 3 Zrotation Yrotation Xrotation
						JOINT Neck1
						{
							OFFSET -0.000000 5.101515 -0.000000
							CHANNELS 3 Zrotation Yrotation Xrotation
							JOINT Head
							{
								OFFSET 0.000000 5.101515 -0.000000
								CHANNELS 3 Zrotation Yrotation Xrotation
								JOINT HeadEnd
								{
									OFFSET -0.000000 11.655085 -0.000000
									CHANNELS 3 Zrotation Yrotation Xrotation
									End Site
									{
										OFFSET 0.000000 0.000000 0.000000
									}
								}
							}
						}
					}
					JOINT RightShoulder
					{
						OFFSET -2.625389 11.175210 -0.000000
						CHANNELS 3 Zrotation Yrotation Xrotation
						JOINT RightArm
						{
							OFFSET -0.000000 10.434715 0.000000
							CHANNELS 3 Zrotation Yrotation Xrotation
							JOINT RightForeArm
							{
								OFFSET 0.000000 29.628420 -0.000000
								CHANNELS 3 Zrotation Yrotation Xrotation
								JOINT RightHand
								{
									OFFSET 0.000000 22.857611 0.000000
									CHANNELS 3 Zrotation Yrotation Xrotation
									JOINT RightHandThumb1
									{
										OFFSET -2.867323 3.959563 2.944291
										CHANNELS 3 Zrotation Yrotation Xrotation
										JOINT RightHandThumb2
										{
											OFFSET 0.000000 3.350399 0.000000
											CHANNELS 3 Zrotation Yrotation Xrotation
											JOINT RightHandThumb3
											{
												OFFSET -0.000000 3.756509 -0.000000
												CHANNELS 3 Zrotation Yrotation Xrotation
												JOINT RightHandThumb4
												{
													OFFSET -0.000000 3.147345 -0.000000
													CHANNELS 3 Zrotation Yrotation Xrotation
													End Site
													{
														OFFSET 0.000000 0.000000 0.000000
													}
												}
											}
										}
									}
									JOINT RightHandIndex1
									{
										OFFSET -0.086752 10.030893 2.345280
										CHANNELS 3 Zrotation Yrotation Xrotation
										JOINT RightHandIndex2
										{
											OFFSET -0.000000 4.061090 0.000000
											CHANNELS 3 Zrotation Yrotation Xrotation
											JOINT RightHandIndex3
											{
												OFFSET 0.000000 3.248873 0.000000
												CHANNELS 3 Zrotation Yrotation Xrotation
												JOINT RightHandIndex4
												{
													OFFSET 0.000000 2.639709 0.000000
													CHANNELS 3 Zrotation Yrotation Xrotation
													End Site
													{
														OFFSET 0.000000 0.000000 0.000000
													}
												}
											}
										}
									}
									JOINT RightHandMiddle1
									{
										OFFSET 0.104102 9.502952 0.006768
										CHANNELS 3 Zrotation Yrotation Xrotation
										JOINT RightHandMiddle2
										{
											OFFSET -0.000000 4.568727 -0.000000
											CHANNELS 3 Zrotation Yrotation Xrotation
											JOINT RightHandMiddle3
											{
												OFFSET -0.000000 3.654981 0.000000
												CHANNELS 3 Zrotation Yrotation Xrotation
												JOINT RightHandMiddle4
												{
													OFFSET 0.000000 2.741236 0.000000
													CHANNELS 3 Zrotation Yrotation Xrotation
													End Site
													{
														OFFSET 0.000000 0.000000 0.000000
													}
												}
											}
										}
									}
									JOINT RightHandRing1
									{
										OFFSET 0.086752 8.921708 -2.267442
										CHANNELS 3 Zrotation Yrotation Xrotation
										JOINT RightHandRing2
										{
											OFFSET -0.000000 4.061090 -0.000000
											CHANNELS 3 Zrotation Yrotation Xrotation
											JOINT RightHandRing3
											{
												OFFSET 0.000000 3.654981 0.000000
												CHANNELS 3 Zrotation Yrotation Xrotation
												JOINT RightHandRing4
												{
													OFFSET -0.000000 2.741236 -0.000000
													CHANNELS 3 Zrotation Yrotation Xrotation
													End Site
													{
														OFFSET 0.000000 0.000000 0.000000
													}
												}
											}
										}
									}
									JOINT RightHandPinky1
									{
										OFFSET -0.173504 7.976997 -4.467199
										CHANNELS 3 Zrotation Yrotation Xrotation
										JOINT RightHandPinky2
										{
											OFFSET 0.000000 3.350399 0.000000
											CHANNELS 3 Zrotation Yrotation Xrotation
											JOINT RightHandPinky3
											{
												OFFSET 0.000000 2.842763 0.000000
												CHANNELS 3 Zrotation Yrotation Xrotation
												JOINT RightHandPinky4
												{
													OFFSET 0.000000 2.639709 0.000000
													CHANNELS 3 Zrotation Yrotation Xrotation
													End Site
													{
														OFFSET 0.000000 0.000000 0.000000
													}
												}
											}
										}
									}
									JOINT RightForeArmEnd
									{
										OFFSET 0.000000 0.000000 0.000000
										CHANNELS 3 Zrotation Yrotation Xrotation
										End Site
										{
											OFFSET 0.000000 0.000000 0.000000
										}
									}
								}
								JOINT RightArmEnd
								{
									OFFSET 0.000000 0.000000 0.000000
									CHANNELS 3 Zrotation Yrotation Xrotation
									End Site
									{
										OFFSET 0.000000 0.000000 0.000000
									}
								}
							}
						}
					}
					JOINT LeftShoulder
					{
						OFFSET 2.625389 11.175210 -0.000000
						CHANNELS 3 Zrotation Yrotation Xrotation
						JOINT LeftArm
						{
							OFFSET 0.000000 10.813635 0.000000
							CHANNELS 3 Zrotation Yrotation Xrotation
							JOINT LeftForeArm
							{
								OFFSET 0.000000 28.724781 0.000000
								CHANNELS 3 Zrotation Yrotation Xrotation
								JOINT LeftHand
								{
									OFFSET 0.644384 25.716167 -0.328871
									CHANNELS 3 Zrotation Yrotation Xrotation
									JOINT LeftHandThumb1
									{
										OFFSET 2.867323 3.959563 2.944291
										CHANNELS 3 Zrotation Yrotation Xrotation
										JOINT LeftHandThumb2
										{
											OFFSET 0.000000 3.350399 0.000000
											CHANNELS 3 Zrotation Yrotation Xrotation
											JOINT LeftHandThumb3
											{
												OFFSET -0.000000 3.756509 -0.000000
												CHANNELS 3 Zrotation Yrotation Xrotation
												JOINT LeftHandThumb4
												{
													OFFSET -0.000000 3.100000 0.000000
													CHANNELS 3 Zrotation Yrotation Xrotation
													End Site
													{
														OFFSET 0.000000 0.000000 0.000000
													}
												}
											}
										}
									}
									JOINT LeftHandIndex1
									{
										OFFSET 0.086752 10.030893 2.345280
										CHANNELS 3 Zrotation Yrotation Xrotation
										JOINT LeftHandIndex2
										{
											OFFSET -0.000000 4.061090 0.000000
											CHANNELS 3 Zrotation Yrotation Xrotation
											JOINT LeftHandIndex3
											{
												OFFSET 0.000000 3.248873 0.000000
												CHANNELS 3 Zrotation Yrotation Xrotation
												JOINT LeftHandIndex4
												{
													OFFSET -0.000000 2.639709 0.000000
													CHANNELS 3 Zrotation Yrotation Xrotation
													End Site
													{
														OFFSET 0.000000 0.000000 0.000000
													}
												}
											}
										}
									}
									JOINT LeftHandMiddle1
									{
										OFFSET -0.104102 9.502952 0.006768
										CHANNELS 3 Zrotation Yrotation Xrotation
										JOINT LeftHandMiddle2
										{
											OFFSET -0.000000 4.568727 0.000000
											CHANNELS 3 Zrotation Yrotation Xrotation
											JOINT LeftHandMiddle3
											{
												OFFSET 0.000000 3.654981 -0.000000
												CHANNELS 3 Zrotation Yrotation Xrotation
												JOINT LeftHandMiddle4
												{
													OFFSET -0.000000 2.741236 0.000000
													CHANNELS 3 Zrotation Yrotation Xrotation
													End Site
													{
														OFFSET 0.000000 0.000000 0.000000
													}
												}
											}
										}
									}
									JOINT LeftHandRing1
									{
										OFFSET -0.086752 8.921708 -2.267442
										CHANNELS 3 Zrotation Yrotation Xrotation
										JOINT LeftHandRing2
										{
											OFFSET -0.000000 4.061090 0.000000
											CHANNELS 3 Zrotation Yrotation Xrotation
											JOINT LeftHandRing3
											{
												OFFSET 0.000000 3.654981 0.000000
												CHANNELS 3 Zrotation Yrotation Xrotation
												JOINT LeftHandRing4
												{
													OFFSET 0.000000 2.741236 -0.000000
													CHANNELS 3 Zrotation Yrotation Xrotation
													End Site
													{
														OFFSET 0.000000 0.000000 0.000000
													}
												}
											}
										}
									}
									JOINT LeftHandPinky1
									{
										OFFSET 0.173504 7.976997 -4.467199
										CHANNELS 3 Zrotation Yrotation Xrotation
										JOINT LeftHandPinky2
										{
											OFFSET 0.000000 3.350399 -0.000000
											CHANNELS 3 Zrotation Yrotation Xrotation
											JOINT LeftHandPinky3
											{
												OFFSET -0.000000 2.842763 0.000000
												CHANNELS 3 Zrotation Yrotation Xrotation
												JOINT LeftHandPinky4
												{
													OFFSET -0.000000 2.639709 0.000000
													CHANNELS 3 Zrotation Yrotation Xrotation
													End Site
													{
														OFFSET 0.000000 0.000000 0.000000
													}
												}
											}
										}
									}
									JOINT LeftForeArmEnd
									{
										OFFSET 0.000000 0.000000 0.000000
										CHANNELS 3 Zrotation Yrotation Xrotation
										End Site
										{
											OFFSET 0.000000 0.000000 0.000000
										}
									}
								}
								JOINT LeftArmEnd
								{
									OFFSET 0.000000 0.000000 0.000000
									CHANNELS 3 Zrotation Yrotation Xrotation
									End Site
									{
										OFFSET 0.000000 0.000000 0.000000
									}
								}
							}
						}
					}
				}
			}
		}
	}
	JOINT RightUpLeg
	{
		OFFSET -11.289943 0.000000 0.000000
		CHANNELS 3 Zrotation Yrotation Xrotation
		JOINT RightLeg
		{
			OFFSET -0.000000 -38.200325 0.000000
			CHANNELS 3 Zrotation Yrotation Xrotation
			JOINT RightFoot
			{
				OFFSET -0.000000 -39.900856 -0.000000
				CHANNELS 3 Zrotation Yrotation Xrotation
				JOINT RightToeBase
				{
					OFFSET -0.000000 -0.000000 15.261641
					CHANNELS 3 Zrotation Yrotation Xrotation
					JOINT RightToeBaseEnd
					{
						OFFSET -0.000000 0.000000 7.370709
						CHANNELS 3 Zrotation Yrotation Xrotation
						End Site
						{
							OFFSET 0.000000 0.000000 0.000000
						}
					}
				}
				JOINT RightLegEnd
				{
					OFFSET 0.000000 0.000000 0.000000
					CHANNELS 3 Zrotation Yrotation Xrotation
					End Site
					{
						OFFSET 0.000000 0.000000 0.000000
					}
				}
			}
			JOINT RightUpLegEnd
			{
				OFFSET 0.000000 0.000000 0.000000
				CHANNELS 3 Zrotation Yrotation Xrotation
				End Site
				{
					OFFSET 0.000000 0.000000 0.000000
				}
			}
		}
	}
	JOINT LeftUpLeg
	{
		OFFSET 11.315661 0.000000 -0.000000
		CHANNELS 3 Zrotation Yrotation Xrotation
		JOINT LeftLeg
		{
			OFFSET -0.000000 -38.200325 -0.000000
			CHANNELS 3 Zrotation Yrotation Xrotation
			JOINT LeftFoot
			{
				OFFSET 0.000000 -39.900856 -0.000000
				CHANNELS 3 Zrotation Yrotation Xrotation
				JOINT LeftToeBase
				{
					OFFSET 0.000000 -0.000000 15.261641
					CHANNELS 3 Zrotation Yrotation Xrotation
					JOINT LeftToeBaseEnd
					{
						OFFSET 0.000000 -0.000000 7.539996
						CHANNELS 3 Zrotation Yrotation Xrotation
						End Site
						{
							OFFSET 0.000000 0.000000 0.000000
						}
					}
				}
				JOINT LeftLegEnd
				{
					OFFSET 0.000000 0.000000 0.000000
					CHANNELS 3 Zrotation Yrotation Xrotation
					End Site
					{
						OFFSET 0.000000 0.000000 0.000000
					}
				}
			}
			JOINT LeftUpLegEnd
			{
				OFFSET 0.000000 0.000000 0.000000
				CHANNELS 3 Zrotation Yrotation Xrotation
				End Site
				{
					OFFSET 0.000000 0.000000 0.000000
				}
			}
		}
	}
}
MOTION
Frames: 4
Frame Time: 0.016667
2.433734 86.173073 3.643662 4.299845 0.534881 -7.077621 -8.138910 1.415882 -0.501093 14.969744 -4.986477 10.393132 -18.977310 3.765862 1.451039 4.191943 -0.820174 -0.026746 5.330935 5.319360 10.245767 -3.058134 4.096265 -7.856699 -0.884414 2.925234 -23.483372 0.000000 0.000000 0.000000 96.794540 -0.452405 3.697086 71.595825 -34.005363 -10.252324 2.613487 16.506643 33.556507 4.896970 16.739386 -10.989886 10.039282 -1.787270 40.137463 0.000000 0.000000 -24.480000 0.000000 0.000000 -16.999998 0.000000 0.000000 0.000000 13.474064 0.000000 -9.998755 9.431845 0.000000 0.000000 9.431845 0.000000 0.000000 0.000000 0.000000 0.000000 14.310910 -0.000000 -12.117423 10.017637 0.000000 0.000000 10.017637 0.000000 0.000000 0.000000 0.000000 0.000000 16.702457 -0.000000 -13.374759 11.691720 0.000000 0.000000 11.691720 0.000000 0.000000 0.000000 0.000000 0.000000 18.303183 0.000000 -16.208984 12.812225 0.000000 0.000000 12.812225 0.000000 0.000000 0.000000 0.000000 0.000000 0.000000 0.000000 0.000000 0.000000 0.000000 0.000000 -93.419373 0.305430 3.692236 -58.119640 34.383701 -1.479928 -3.132393 -16.410662 54.021275 0.345754 -19.841892 -14.396711 -7.651653 1.517517 41.228924 0.000000 0.000000 -18.719999 0.000000 0.000000 -13.000000 0.000000 0.000000 0.000000 -7.052994 -0.000000 -11.588723 -4.937097 0.000000 0.000000 -4.937097 0.000000 0.000000 0.000000 0.000000 0.000000 -8.928932 0.000000 -13.154870 -6.250252 0.000000 0.000000 -6.250252 0.000000 0.000000 0.000000 0.000000 0.000000 -13.184094 0.000000 -12.977899 -9.228864 0.000000 0.000000 -9.228864 0.000000 0.000000 0.000000 0.000000 0.000000 -16.410326 -0.000000 -13.409651 -11.487226 0.000000 0.000000 -11.487226 0.000000 0.000000 0.000000 0.000000 0.000000 0.000000 0.000000 0.000000 0.000000 0.000000 0.000000 -16.555935 3.881752 -2.063656 -0.437959 -1.141036 20.999811 8.242569 -11.888932 17.012327 -0.798321 -0.807249 -27.538485 0.000000 0.000000 0.000000 0.000000 0.000000 0.000000 0.000000 0.000000 0.000000 -1.257158 -2.234490 1.752836 0.201865 0.647150 17.324553 2.536021 0.751004 14.193522 -0.373871 0.147749 -28.911346 0.000000 0.000000 0.000000 0.000000 0.000000 0.000000 0.000000 0.000000 0.000000 
0.883771 86.288193 3.578017 3.434548 1.290589 -9.136871 -2.802196 0.646383 5.857499 5.652456 -1.404190 4.022251 -8.434218 2.240881 8.734335 -0.854987 -0.941016 -0.489393 1.100659 6.863737 9.039664 -3.106510 4.457314 -7.005884 -0.646137 3.329717 -21.858511 0.000000 0.000000 0.000000 96.415672 -1.415527 3.386915 71.025703 -33.566364 -10.463655 2.032208 20.178503 37.914814 3.317477 16.617413 -12.326628 10.349730 -1.771303 40.050255 -0.000011 0.000020 -25.431082 0.000006 0.000045 -17.560835 -0.000004 0.000004 -0.000029 13.539917 0.549894 -10.856248 10.051044 -0.002810 -0.022681 10.333656 0.036695 -0.071228 -0.000017 0.000025 -0.000015 14.624618 0.221026 -11.758816 10.535152 -0.021626 -0.058068 10.510134 0.023282 -0.025862 -0.000007 0.000017 0.000008 18.188976 -0.302652 -11.410974 12.393930 0.010455 0.063075 12.357202 -0.044078 0.057258 -0.000018 -0.000591 0.000023 20.483700 -0.841328 -13.113503 13.781399 -0.083429 0.537938 13.519230 -0.201521 0.382657 0.000452 -0.000005 -0.000005 0.000000 0.000000 0.000000 0.000000 0.000000 0.000000 -92.443794 0.342086 4.212893 -54.778999 30.812727 4.586462 -2.524582 -13.725027 48.853783 -2.607415 -19.831394 -14.381413 -7.536921 1.508056 41.296486 -0.000001 0.000015 -18.430836 -0.000150 -0.000032 -12.699306 -0.000968 -0.000017 0.001463 -5.656295 0.656182 -12.440135 -6.089297 -0.025748 -0.059297 -6.239982 0.026926 -0.062124 0.000033 0.000860 0.000001 -7.596235 0.276124 -12.888591 -7.095767 -0.044401 0.011079 -6.793777 0.009614 0.003259 -0.000758 -0.000056 -0.000292 -12.942158 -0.312733 -11.223170 -9.955041 0.054882 -0.092939 -9.846894 -0.022495 -0.057932 0.000793 0.000010 0.000005 -16.470955 -0.817761 -10.629660 -12.068120 0.053421 -0.371820 -11.897009 -0.100737 -0.328480 0.000255 0.000013 -0.000040 0.000000 0.000000 0.000000 0.000000 0.000000 0.000000 -14.599865 1.684496 -0.547966 -0.412478 -1.236472 21.022327 7.258540 -7.857505 17.213846 -0.642520 -0.308034 -30.384945 0.000000 0.000000 0.000000 0.000000 0.000000 0.000000 0.000000 0.000000 0.000000 0.698116 -0.834501 5.562078 0.265489 1.027310 15.960471 0.491132 -0.121366 15.070641 -0.364450 -0.309527 -29.456558 0.000000 0.000000 0.000000 0.000000 0.000000 0.000000 0.000000 0.000000 0.000000 
-0.206915 86.370827 3.793195 2.897597 1.763976 -9.392237 -2.327072 0.550209 6.147876 5.694126 -1.413624 3.884935 -8.085974 2.034906 8.865887 -0.794085 -0.934021 -0.164519 1.542900 6.648524 8.734170 -3.173830 4.276149 -6.992331 -0.729891 3.299787 -21.729967 0.000000 0.000000 0.000000 96.217438 -1.429846 3.609580 70.036743 -34.310196 -9.515223 1.938930 20.008476 37.662285 3.119731 17.046385 -12.803605 10.426970 -1.787772 40.011703 -0.000012 0.000040 -25.593540 0.000004 0.000036 -17.668823 0.000011 0.000009 -0.000048 14.157397 0.485412 -10.517571 10.326630 -0.009778 -0.010163 10.608411 0.027451 -0.068434 -0.000003 0.000031 -0.000016 15.042254 0.197808 -11.557179 10.785524 -0.022529 -0.053239 10.746617 0.020138 -0.023434 0.000002 -0.000034 -0.000005 18.473871 -0.272807 -11.251472 12.614223 0.008422 0.057871 12.561252 -0.039698 0.052463 -0.000026 -0.000740 0.000020 20.475449 -0.762405 -13.048763 14.000120 -0.072824 0.538912 13.721414 -0.182823 0.374022 0.000415 -0.000004 -0.000021 0.000000 0.000000 0.000000 0.000000 0.000000 0.000000 -92.431213 0.390635 4.215249 -55.878712 30.943453 4.347422 -2.501601 -13.813222 48.201057 -2.869612 -18.935802 -14.763163 -7.641427 1.526092 41.229961 -0.000013 0.000026 -18.803801 -0.000161 -0.000036 -12.961049 -0.000910 -0.000017 0.000876 -6.418480 0.594631 -12.189489 -6.240200 -0.030918 -0.071842 -6.407687 0.015586 -0.069343 0.000036 0.001249 -0.000004 -8.173589 0.251467 -12.701769 -7.249241 -0.044312 0.003374 -6.948805 0.006933 -0.003664 -0.000593 -0.000064 -0.000305 -13.353637 -0.282771 -11.018965 -10.096580 0.055655 -0.074314 -10.025755 -0.017299 -0.045110 0.000894 0.000016 0.000007 -16.909679 -0.745262 -10.284373 -12.181126 0.065581 -0.303154 -12.036574 -0.082261 -0.290125 0.000355 0.000021 -0.000045 0.000000 0.000000 0.000000 0.000000 0.000000 0.000000 -13.132007 1.336454 0.510498 -0.386463 -1.213606 20.631386 6.451046 -8.209876 16.806555 -0.618056 -0.263166 -29.896030 0.000000 0.000000 0.000000 0.000000 0.000000 0.000000 0.000000 0.000000 0.000000 2.067709 -1.347159 6.143193 0.290016 1.111642 15.934442 -0.327031 0.082038 15.117984 -0.209822 -0.357218 -29.350372 0.000000 0.000000 0.000000 0.000000 0.000000 0.000000 0.000000 0.000000 0.000000 
-1.232050 86.414528 3.963075 2.355424 2.382565 -9.512486 -1.852825 0.461345 6.371017 5.829387 -1.439464 3.769092 -7.774194 1.863560 9.030928 -0.659402 -0.948246 0.035750 2.146337 6.293916 8.571144 -3.239169 4.035580 -7.001814 -0.720914 3.327046 -21.689884 0.000000 0.000000 0.000000 96.017456 -1.445871 3.671906 69.393997 -34.672226 -8.628878 1.841116 19.828379 37.288841 2.681783 16.811892 -12.885813 10.429862 -1.785646 40.023243 -0.000009 0.000042 -25.527552 0.000004 0.000036 -17.614649 0.000013 0.000010 -0.000049 14.453924 0.449440 -10.259582 10.503598 -0.015886 -0.007621 10.769270 0.021336 -0.069664 -0.000001 0.000031 -0.000019 15.202478 0.183693 -11.381684 10.946377 -0.022830 -0.054799 10.889064 0.018048 -0.025181 0.000004 -0.000033 -0.000005 18.520630 -0.253855 -11.066592 12.788592 0.010000 0.065885 12.726400 -0.036294 0.059206 -0.000026 -0.000570 0.000021 20.244423 -0.716013 -12.845202 14.130121 -0.059905 0.581779 13.852873 -0.169213 0.402472 0.000395 -0.000006 -0.000033 0.000000 0.000000 0.000000 0.000000 0.000000 0.000000 -92.308189 0.420774 4.112803 -57.017204 30.943235 3.840875 -2.463253 -13.727639 47.941872 -3.283918 -18.606430 -14.793651 -7.721670 1.530734 41.191456 -0.000015 0.000029 -19.070837 -0.000161 -0.000037 -13.159089 -0.001103 -0.000020 0.000473 -7.084667 0.559654 -12.003266 -6.390972 -0.033567 -0.057534 -6.571880 0.010423 -0.052835 0.000036 0.001588 -0.000005 -8.727753 0.236164 -12.536446 -7.387676 -0.042946 0.006734 -7.061902 0.006230 -0.000004 -0.000561 -0.000066 -0.000312 -13.721384 -0.264068 -10.831445 -10.185708 0.054962 -0.067737 -10.125430 -0.014839 -0.041684 0.000693 0.000015 0.000005 -17.222231 -0.704601 -9.984821 -12.239609 0.074733 -0.256783 -12.084339 -0.069923 -0.262246 0.000308 0.000018 -0.000044 0.000000 0.000000 0.000000 0.000000 0.000000 0.000000 -11.698594 0.729671 1.522853 -0.360171 -1.155860 20.250240 5.670562 -9.162834 16.460163 -0.599532 -0.282282 -29.580732 0.000000 0.000000 0.000000 0.000000 0.000000 0.000000 0.000000 0.000000 0.000000 3.471957 -1.907642 6.256813 0.314256 1.159682 16.343082 -1.093036 0.023820 15.292643 -0.107457 -0.354782 -29.534815 0.000000 0.000000 0.000000 0.000000 0.000000 0.000000 0.000000 0.000000 0.000000 
